<svg xmlns="http://www.w3.org/2000/svg" viewBox="0 0 120 120" role="img" aria-label="rabbit">
  <ellipse cx="42" cy="26" rx="11" ry="26" fill="#f2e9e4"/><ellipse cx="78" cy="26" rx="11" ry="26" fill="#f2e9e4"/>
  <ellipse cx="42" cy="28" rx="5" ry="18" fill="#ffb3c1"/><ellipse cx="78" cy="28" rx="5" ry="18" fill="#ffb3c1"/>
  <circle cx="60" cy="72" r="38" fill="#f8f3ef"/>
  <circle cx="47" cy="66" r="6" fill="#3d3a4b"/><circle cx="73" cy="66" r="6" fill="#3d3a4b"/>
  <circle cx="49" cy="64" r="2" fill="#fff"/><circle cx="75" cy="64" r="2" fill="#fff"/>
  <path d="M54 82 h12 l-6 6 z" fill="#ff7b9c"/>
  <path d="M60 88 q-8 8 -16 3 M60 88 q8 8 16 3" stroke="#3d3a4b" stroke-width="3.5" fill="none" stroke-linecap="round"/>
  <path d="M22 74 h22 M22 84 h22 M98 74 H76 M98 84 H76" stroke="#c9ada7" stroke-width="3" stroke-linecap="round"/>
</svg>
